<svg width="15" height="15" viewBox="0 0 15 15" fill="none" xmlns="http://www.w3.org/2000/svg">
<path d="M13.1855 14C6.25352 14.0098 0.992592 8.68584 1.00001 1.81454C1.00001 1.36581 1.36378 1 1.81251 1H3.95699C4.35964 1 4.70169 1.29586 4.76082 1.69414C4.90253 2.64872 5.18045 3.57804 5.58614 4.4537L5.66964 4.63391C5.78573 4.88449 5.70704 5.18221 5.4823 5.34271C4.81818 5.81698 4.56437 6.77164 5.08175 7.51654C5.73101 8.45131 6.54942 9.26954 7.48397 9.9185C8.22883 10.4357 9.18334 10.182 9.6576 9.51796C9.8182 9.2931 10.1161 9.21437 10.3668 9.33052L10.5462 9.41362C11.4219 9.81928 12.3513 10.0972 13.306 10.2389C13.7043 10.298 14 10.64 14 11.0427V13.1875C14 13.6362 13.6353 14 13.1866 14L13.1855 14Z" stroke="#202227" stroke-width="1.5"/>
</svg>
