<svg width="16" height="13" viewBox="0 0 16 13" fill="none" xmlns="http://www.w3.org/2000/svg">
<path fill-rule="evenodd" clip-rule="evenodd" d="M2.06605 1.83979C2.16269 1.78322 2.27645 1.75 2.4 1.75H13.6C13.7235 1.75 13.8373 1.78322 13.9339 1.83979L8 6.07832L2.06605 1.83979ZM0.44058 1.50035C0.422685 1.52044 0.405689 1.54168 0.389697 1.56407C0.26589 1.7374 0.226395 1.94547 0.263074 2.13945C0.254436 2.21673 0.249997 2.29532 0.249997 2.375V10.625C0.249997 11.8081 1.22858 12.75 2.4 12.75H13.6C14.7714 12.75 15.75 11.8081 15.75 10.625V2.375C15.75 2.29532 15.7456 2.21673 15.7369 2.13945C15.7736 1.94547 15.7341 1.7374 15.6103 1.56407C15.5943 1.54168 15.5773 1.52044 15.5594 1.50035C15.2192 0.759768 14.4618 0.25 13.6 0.25H2.4C1.5382 0.25 0.780769 0.759768 0.44058 1.50035ZM14.25 3.45739V10.625C14.25 10.9544 13.9686 11.25 13.6 11.25H2.4C2.03141 11.25 1.75 10.9544 1.75 10.625V3.45739L7.56407 7.6103C7.82484 7.79657 8.17515 7.79657 8.43593 7.6103L14.25 3.45739Z" fill="#202227"/>
</svg>
